<svg xmlns="http://www.w3.org/2000/svg" xmlns:xlink="http://www.w3.org/1999/xlink" xmlns:s="https://github.com/nturley/netlistsvg" width="894" height="613">
  <style>svg {
    stroke:#000;
    fill:none;
  }
  text {
    fill:#000;
    stroke:none;
    font-size:10px;
    font-weight: bold;
    font-family: "Courier New", monospace;
  }
  .nodelabel {
    text-anchor: middle;
  }
  .inputPortLabel {
    text-anchor: end;
  }
  .splitjoinBody {
    fill:#000;
  }</style>
  <g s:type="and" transform="translate(242,335.5)" s:width="30" s:height="25" id="cell_$and$Verilog/data_memory.v:23$2051">
    <s:alias val="$and"/>
    <s:alias val="$logic_and"/>
    <s:alias val="$_AND_"/>
    <path d="M0,0 L0,25 L15,25 A15 12.5 0 0 0 15,0 Z" class="cell_$and$Verilog/data_memory.v:23$2051"/>
    <g s:x="0" s:y="5" s:pid="A"/>
    <g s:x="0" s:y="20" s:pid="B"/>
    <g s:x="30" s:y="12.5" s:pid="Y"/>
  </g>
  <g s:type="dff" transform="translate(769,549)" s:width="30" s:height="40" id="cell_$procdff$6171">
    <s:alias val="$dff"/>
    <s:alias val="$_DFF_"/>
    <s:alias val="$_DFF_P_"/>
    <rect width="30" height="40" x="0" y="0" class="cell_$procdff$6171"/>
    <path d="M0,35 L5,30 L0,25" class="cell_$procdff$6171"/>
    <g s:x="30" s:y="10" s:pid="Q"/>
    <g s:x="0" s:y="30" s:pid="CLK"/>
    <g s:x="0" s:y="30" s:pid="C"/>
    <g s:x="0" s:y="10" s:pid="D"/>
  </g>
  <g s:type="mux" transform="translate(327.33333333333337,520.5)" s:width="20" s:height="40" id="cell_$procmux$6160">
    <s:alias val="$pmux"/>
    <s:alias val="$mux"/>
    <s:alias val="$_MUX_"/>
    <path d="M0,0 L20,10 L20,30 L0,40 Z" class="cell_$procmux$6160"/>
    <g s:x="0" s:y="10" s:pid="A"/>
    <g s:x="0" s:y="30" s:pid="B"/>
    <g s:x="10" s:y="35" s:pid="S"/>
    <g s:x="20" s:y="20" s:pid="Y"/>
  </g>
  <g s:type="mux" transform="translate(402,298)" s:width="20" s:height="40" id="cell_$procmux$6163">
    <s:alias val="$pmux"/>
    <s:alias val="$mux"/>
    <s:alias val="$_MUX_"/>
    <path d="M0,0 L20,10 L20,30 L0,40 Z" class="cell_$procmux$6163"/>
    <g s:x="0" s:y="10" s:pid="A"/>
    <g s:x="0" s:y="30" s:pid="B"/>
    <g s:x="10" s:y="35" s:pid="S"/>
    <g s:x="20" s:y="20" s:pid="Y"/>
  </g>
  <g s:type="mux" transform="translate(402,238)" s:width="20" s:height="40" id="cell_$procmux$6166">
    <s:alias val="$pmux"/>
    <s:alias val="$mux"/>
    <s:alias val="$_MUX_"/>
    <path d="M0,0 L20,10 L20,30 L0,40 Z" class="cell_$procmux$6166"/>
    <g s:x="0" s:y="10" s:pid="A"/>
    <g s:x="0" s:y="30" s:pid="B"/>
    <g s:x="10" s:y="35" s:pid="S"/>
    <g s:x="20" s:y="20" s:pid="Y"/>
  </g>
  <g s:type="mux" transform="translate(659,260.5)" s:width="20" s:height="40" id="cell_$ternary$Verilog/data_memory.v:21$2050">
    <s:alias val="$pmux"/>
    <s:alias val="$mux"/>
    <s:alias val="$_MUX_"/>
    <path d="M0,0 L20,10 L20,30 L0,40 Z" class="cell_$ternary$Verilog/data_memory.v:21$2050"/>
    <g s:x="0" s:y="10" s:pid="A"/>
    <g s:x="0" s:y="30" s:pid="B"/>
    <g s:x="10" s:y="35" s:pid="S"/>
    <g s:x="20" s:y="20" s:pid="Y"/>
  </g>
  <g s:type="mux" transform="translate(714,250.5)" s:width="20" s:height="40" id="cell_$ternary$Verilog/data_memory.v:25$2052">
    <s:alias val="$pmux"/>
    <s:alias val="$mux"/>
    <s:alias val="$_MUX_"/>
    <path d="M0,0 L20,10 L20,30 L0,40 Z" class="cell_$ternary$Verilog/data_memory.v:25$2052"/>
    <g s:x="0" s:y="10" s:pid="A"/>
    <g s:x="0" s:y="30" s:pid="B"/>
    <g s:x="10" s:y="35" s:pid="S"/>
    <g s:x="20" s:y="20" s:pid="Y"/>
  </g>
  <g s:type="generic" transform="translate(550,260)" s:width="30" s:height="40" id="cell_mem">
    <text x="15" y="-4" class="nodelabel cell_mem" s:attribute="ref">$mem_v2</text>
    <rect width="30" height="180" s:generic="body" class="cell_mem"/>
    <g transform="translate(0,10)" s:x="0" s:y="10" s:pid="in0" id="port_mem~RD_ADDR">
      <text x="-3" y="-4" class="inputPortLabel cell_mem">RD_ADDR</text>
    </g>
    <g transform="translate(0,30)" s:x="0" s:y="10" s:pid="in0" id="port_mem~RD_ARST">
      <text x="-3" y="-4" class="inputPortLabel cell_mem">RD_ARST</text>
    </g>
    <g transform="translate(0,50)" s:x="0" s:y="10" s:pid="in0" id="port_mem~RD_CLK">
      <text x="-3" y="-4" class="inputPortLabel cell_mem">RD_CLK</text>
    </g>
    <g transform="translate(0,70)" s:x="0" s:y="10" s:pid="in0" id="port_mem~RD_EN">
      <text x="-3" y="-4" class="inputPortLabel cell_mem">RD_EN</text>
    </g>
    <g transform="translate(0,90)" s:x="0" s:y="10" s:pid="in0" id="port_mem~RD_SRST">
      <text x="-3" y="-4" class="inputPortLabel cell_mem">RD_SRST</text>
    </g>
    <g transform="translate(0,110)" s:x="0" s:y="10" s:pid="in0" id="port_mem~WR_ADDR">
      <text x="-3" y="-4" class="inputPortLabel cell_mem">WR_ADDR</text>
    </g>
    <g transform="translate(0,130)" s:x="0" s:y="10" s:pid="in0" id="port_mem~WR_CLK">
      <text x="-3" y="-4" class="inputPortLabel cell_mem">WR_CLK</text>
    </g>
    <g transform="translate(0,150)" s:x="0" s:y="10" s:pid="in0" id="port_mem~WR_DATA">
      <text x="-3" y="-4" class="inputPortLabel cell_mem">WR_DATA</text>
    </g>
    <g transform="translate(0,170)" s:x="0" s:y="10" s:pid="in0" id="port_mem~WR_EN">
      <text x="-3" y="-4" class="inputPortLabel cell_mem">WR_EN</text>
    </g>
    <g transform="translate(30,10)" s:x="30" s:y="10" s:pid="out0" id="port_mem~RD_DATA">
      <text x="5" y="-4" style="fill:#000; stroke:none" class="cell_mem">RD_DATA</text>
    </g>
  </g>
  <g s:type="inputExt" transform="translate(397,368)" s:width="30" s:height="20" id="cell_clk">
    <text x="15" y="-4" class="nodelabel cell_clk" s:attribute="ref">clk</text>
    <s:alias val="$_inputExt_"/>
    <path d="M0,0 L0,20 L15,20 L30,10 L15,0 Z" class="cell_clk"/>
    <g s:x="28" s:y="10" s:pid="Y"/>
  </g>
  <g s:type="inputExt" transform="translate(143,330.5)" s:width="30" s:height="20" id="cell_enable">
    <text x="15" y="-4" class="nodelabel cell_enable" s:attribute="ref">enable</text>
    <s:alias val="$_inputExt_"/>
    <path d="M0,0 L0,20 L15,20 L30,10 L15,0 Z" class="cell_enable"/>
    <g s:x="28" s:y="10" s:pid="Y"/>
  </g>
  <g s:type="inputExt" transform="translate(238,33)" s:width="30" s:height="20" id="cell_address">
    <text x="15" y="-4" class="nodelabel cell_address" s:attribute="ref">address</text>
    <s:alias val="$_inputExt_"/>
    <path d="M0,0 L0,20 L15,20 L30,10 L15,0 Z" class="cell_address"/>
    <g s:x="28" s:y="10" s:pid="Y"/>
  </g>
  <g s:type="inputExt" transform="translate(143,580)" s:width="30" s:height="20" id="cell_read_write">
    <text x="15" y="-4" class="nodelabel cell_read_write" s:attribute="ref">read_write</text>
    <s:alias val="$_inputExt_"/>
    <path d="M0,0 L0,20 L15,20 L30,10 L15,0 Z" class="cell_read_write"/>
    <g s:x="28" s:y="10" s:pid="Y"/>
  </g>
  <g s:type="inputExt" transform="translate(320,318)" s:width="30" s:height="20" id="cell_data_in">
    <text x="15" y="-4" class="nodelabel cell_data_in" s:attribute="ref">data_in</text>
    <s:alias val="$_inputExt_"/>
    <path d="M0,0 L0,20 L15,20 L30,10 L15,0 Z" class="cell_data_in"/>
    <g s:x="28" s:y="10" s:pid="Y"/>
  </g>
  <g s:type="outputExt" transform="translate(834,549)" s:width="30" s:height="20" id="cell_data_out">
    <text x="15" y="-4" class="nodelabel cell_data_out" s:attribute="ref">data_out</text>
    <s:alias val="$_outputExt_"/>
    <path d="M30,0 L30,20 L15,20 L0,10 L15,0 Z" class="cell_data_out"/>
    <g s:x="0" s:y="10" s:pid="A"/>
  </g>
  <g s:type="constant" transform="translate(238,98)" s:width="30" s:height="20" id="cell_0">
    <text x="15" y="-4" class="nodelabel cell_0" s:attribute="ref">0</text>
    <s:alias val="$_constant_"/>
    <rect width="30" height="20" class="cell_0"/>
    <g s:x="30" s:y="10" s:pid="Y"/>
  </g>
  <g s:type="constant" transform="translate(238,163)" s:width="30" s:height="20" id="cell_1">
    <text x="15" y="-4" class="nodelabel cell_1" s:attribute="ref">1</text>
    <s:alias val="$_constant_"/>
    <rect width="30" height="20" class="cell_1"/>
    <g s:x="30" s:y="10" s:pid="Y"/>
  </g>
  <g s:type="join" transform="translate(125,14)" s:width="4" s:height="40" id="cell_$join$,x,x,x,x,x,x,x,x,x,x,x,">
    <rect width="5" height="40" class="splitjoinBody" s:generic="body"/>
    <s:alias val="$_join_"/>
    <g s:x="5" s:y="20" s:pid="out"/>
    <g transform="translate(0,10)" s:x="0" s:y="10" s:pid="in0">
      <text x="-3" y="-4" class="inputPortLabel">0:7</text>
    </g>
    <g transform="translate(0,30)" s:x="0" s:y="10" s:pid="in0">
      <text x="-3" y="-4" class="inputPortLabel">8:10</text>
    </g>
  </g>
  <g s:type="join" transform="translate(400.7142857142857,410)" s:width="4" s:height="40" id="cell_$join$,42,42,42,42,42,42,42,42,">
    <rect width="5" height="160" class="splitjoinBody" s:generic="body"/>
    <s:alias val="$_join_"/>
    <g s:x="5" s:y="20" s:pid="out"/>
    <g transform="translate(0,10)" s:x="0" s:y="10" s:pid="in0">
      <text x="-3" y="-4" class="inputPortLabel">0</text>
    </g>
    <g transform="translate(0,30)" s:x="0" s:y="10" s:pid="in0">
      <text x="-3" y="-4" class="inputPortLabel">1</text>
    </g>
    <g transform="translate(0,50)" s:x="0" s:y="10" s:pid="in0">
      <text x="-3" y="-4" class="inputPortLabel">2</text>
    </g>
    <g transform="translate(0,70)" s:x="0" s:y="10" s:pid="in0">
      <text x="-3" y="-4" class="inputPortLabel">3</text>
    </g>
    <g transform="translate(0,90)" s:x="0" s:y="10" s:pid="in0">
      <text x="-3" y="-4" class="inputPortLabel">4</text>
    </g>
    <g transform="translate(0,110)" s:x="0" s:y="10" s:pid="in0">
      <text x="-3" y="-4" class="inputPortLabel">5</text>
    </g>
    <g transform="translate(0,130)" s:x="0" s:y="10" s:pid="in0">
      <text x="-3" y="-4" class="inputPortLabel">6</text>
    </g>
    <g transform="translate(0,150)" s:x="0" s:y="10" s:pid="in0">
      <text x="-3" y="-4" class="inputPortLabel">7</text>
    </g>
  </g>
  <g s:type="split" transform="translate(47,34)" s:width="5" s:height="40" id="cell_$split$,x,x,x,x,x,x,x,x,">
    <rect width="5" height="40" class="splitjoinBody" s:generic="body"/>
    <s:alias val="$_split_"/>
    <g s:x="0" s:y="20" s:pid="in"/>
    <g transform="translate(4,10)" s:x="4" s:y="10" s:pid="out0">
      <text x="5" y="-4">0:2</text>
    </g>
    <g transform="translate(4,30)" s:x="4" s:y="10" s:pid="out0">
      <text x="5" y="-4">0</text>
    </g>
  </g>
  <g s:type="split" transform="translate(332,184)" s:width="5" s:height="40" id="cell_$split$,4,5,6,7,8,9,10,11,12,13,14,15,">
    <rect width="5" height="20" class="splitjoinBody" s:generic="body"/>
    <s:alias val="$_split_"/>
    <g s:x="0" s:y="20" s:pid="in"/>
    <g transform="translate(4,10)" s:x="4" s:y="10" s:pid="out0">
      <text x="5" y="-4">0:10</text>
    </g>
  </g>
  <line x1="171" x2="242" y1="340.5" y2="340.5" class="net_3"/>
  <line x1="171" x2="213" y1="340.5" y2="340.5" class="net_3"/>
  <line x1="213" x2="213" y1="340.5" y2="12" class="net_3"/>
  <line x1="213" x2="689" y1="12" y2="12" class="net_3"/>
  <line x1="689" x2="689" y1="12" y2="569" class="net_3"/>
  <line x1="689" x2="724" y1="569" y2="569" class="net_3"/>
  <circle cx="213" cy="340.5" r="2" style="fill:#000" class="net_3"/>
  <line x1="724" x2="724" y1="569" y2="285.5" class="net_3"/>
  <line x1="171" x2="213" y1="590" y2="590" class="net_16"/>
  <line x1="213" x2="213" y1="590" y2="355.5" class="net_16"/>
  <circle cx="213" cy="590" r="2" style="fill:#000" class="net_16"/>
  <line x1="213" x2="242" y1="355.5" y2="355.5" class="net_16"/>
  <line x1="171" x2="669" y1="590" y2="590" class="net_16"/>
  <line x1="669" x2="669" y1="590" y2="295.5" class="net_16"/>
  <line x1="425" x2="437" y1="378" y2="378" class="net_2"/>
  <line x1="437" x2="437" y1="378" y2="579" class="net_2"/>
  <line x1="437" x2="769" y1="579" y2="579" class="net_2"/>
  <line x1="425" x2="437" y1="378" y2="378" class="net_2"/>
  <line x1="437" x2="437" y1="378" y2="390.5" class="net_2"/>
  <circle cx="437" cy="390.5" r="2" style="fill:#000" class="net_2"/>
  <line x1="437" x2="550" y1="390.5" y2="390.5" class="net_2"/>
  <line x1="734" x2="744" y1="270.5" y2="270.5" class="net_34,35,36,37,38,39,40,41"/>
  <line x1="744" x2="744" y1="270.5" y2="559" class="net_34,35,36,37,38,39,40,41"/>
  <line x1="744" x2="769" y1="559" y2="559" class="net_34,35,36,37,38,39,40,41"/>
  <line x1="268" x2="300" y1="108" y2="108" class="net_78"/>
  <line x1="300" x2="300" y1="108" y2="530.5" class="net_78"/>
  <line x1="300" x2="327.33333333333337" y1="530.5" y2="530.5" class="net_78"/>
  <line x1="268" x2="300" y1="108" y2="108" class="net_78"/>
  <line x1="300" x2="300" y1="108" y2="162" class="net_78"/>
  <line x1="300" x2="487" y1="162" y2="162" class="net_78"/>
  <line x1="487" x2="487" y1="162" y2="290.5" class="net_78"/>
  <circle cx="300" cy="162" r="2" style="fill:#000" class="net_78"/>
  <line x1="487" x2="550" y1="290.5" y2="290.5" class="net_78"/>
  <line x1="268" x2="300" y1="108" y2="108" class="net_78"/>
  <line x1="300" x2="300" y1="108" y2="227" class="net_78"/>
  <line x1="300" x2="467" y1="227" y2="227" class="net_78"/>
  <line x1="467" x2="467" y1="227" y2="350.5" class="net_78"/>
  <circle cx="300" cy="227" r="2" style="fill:#000" class="net_78"/>
  <line x1="467" x2="550" y1="350.5" y2="350.5" class="net_78"/>
  <line x1="268" x2="290" y1="173" y2="173" class="net_79"/>
  <line x1="290" x2="290" y1="173" y2="550.5" class="net_79"/>
  <circle cx="290" cy="173" r="2" style="fill:#000" class="net_79"/>
  <line x1="290" x2="327.33333333333337" y1="550.5" y2="550.5" class="net_79"/>
  <line x1="268" x2="477" y1="173" y2="173" class="net_79"/>
  <line x1="477" x2="477" y1="173" y2="330.5" class="net_79"/>
  <line x1="477" x2="550" y1="330.5" y2="330.5" class="net_79"/>
  <line x1="272" x2="310" y1="348" y2="348" class="net_33"/>
  <line x1="310" x2="310" y1="348" y2="570.5" class="net_33"/>
  <line x1="310" x2="337.33333333333337" y1="570.5" y2="570.5" class="net_33"/>
  <circle cx="310" cy="348" r="2" style="fill:#000" class="net_33"/>
  <line x1="337.33333333333337" x2="337.33333333333337" y1="570.5" y2="555.5" class="net_33"/>
  <line x1="272" x2="412" y1="348" y2="348" class="net_33"/>
  <line x1="412" x2="412" y1="348" y2="333" class="net_33"/>
  <line x1="272" x2="310" y1="348" y2="348" class="net_33"/>
  <line x1="310" x2="310" y1="348" y2="288" class="net_33"/>
  <line x1="310" x2="412" y1="288" y2="288" class="net_33"/>
  <line x1="412" x2="412" y1="288" y2="273" class="net_33"/>
  <line x1="348" x2="402" y1="328" y2="328" class="net_17,18,19,20,21,22,23,24"/>
  <line x1="337" x2="372" y1="194.5" y2="194.5" class="net_4,5,6,7,8,9,10,11,12,13,14"/>
  <line x1="372" x2="372" y1="194.5" y2="268" class="net_4,5,6,7,8,9,10,11,12,13,14"/>
  <circle cx="372" cy="194.5" r="2" style="fill:#000" class="net_4,5,6,7,8,9,10,11,12,13,14"/>
  <line x1="372" x2="402" y1="268" y2="268" class="net_4,5,6,7,8,9,10,11,12,13,14"/>
  <line x1="337" x2="372" y1="194.5" y2="194.5" class="net_4,5,6,7,8,9,10,11,12,13,14"/>
  <line x1="372" x2="372" y1="194.5" y2="151" class="net_4,5,6,7,8,9,10,11,12,13,14"/>
  <line x1="372" x2="497" y1="151" y2="151" class="net_4,5,6,7,8,9,10,11,12,13,14"/>
  <line x1="497" x2="497" y1="151" y2="270.5" class="net_4,5,6,7,8,9,10,11,12,13,14"/>
  <line x1="497" x2="550" y1="270.5" y2="270.5" class="net_4,5,6,7,8,9,10,11,12,13,14"/>
  <line x1="581" x2="659" y1="270.5" y2="270.5" class="net_62,63,64,65,66,67,68,69"/>
  <line x1="799" x2="809" y1="559" y2="559" class="net_25,26,27,28,29,30,31,32"/>
  <line x1="809" x2="809" y1="559" y2="600" class="net_25,26,27,28,29,30,31,32"/>
  <line x1="809" x2="634" y1="600" y2="600" class="net_25,26,27,28,29,30,31,32"/>
  <line x1="634" x2="634" y1="600" y2="290.5" class="net_25,26,27,28,29,30,31,32"/>
  <line x1="634" x2="659" y1="290.5" y2="290.5" class="net_25,26,27,28,29,30,31,32"/>
  <line x1="799" x2="809" y1="559" y2="559" class="net_25,26,27,28,29,30,31,32"/>
  <line x1="809" x2="809" y1="559" y2="240.5" class="net_25,26,27,28,29,30,31,32"/>
  <line x1="809" x2="699" y1="240.5" y2="240.5" class="net_25,26,27,28,29,30,31,32"/>
  <line x1="699" x2="699" y1="240.5" y2="260.5" class="net_25,26,27,28,29,30,31,32"/>
  <circle cx="809" cy="559" r="2" style="fill:#000" class="net_25,26,27,28,29,30,31,32"/>
  <line x1="699" x2="714" y1="260.5" y2="260.5" class="net_25,26,27,28,29,30,31,32"/>
  <line x1="799" x2="834" y1="559" y2="559" class="net_25,26,27,28,29,30,31,32"/>
  <line x1="679" x2="714" y1="280.5" y2="280.5" class="net_70,71,72,73,74,75,76,77"/>
  <line x1="422" x2="457" y1="258" y2="258" class="net_51,52,53,54,55,56,57,58,59,60,61"/>
  <line x1="457" x2="457" y1="258" y2="370.5" class="net_51,52,53,54,55,56,57,58,59,60,61"/>
  <line x1="457" x2="550" y1="370.5" y2="370.5" class="net_51,52,53,54,55,56,57,58,59,60,61"/>
  <line x1="422" x2="447" y1="318" y2="318" class="net_43,44,45,46,47,48,49,50"/>
  <line x1="447" x2="447" y1="318" y2="410.5" class="net_43,44,45,46,47,48,49,50"/>
  <line x1="447" x2="550" y1="410.5" y2="410.5" class="net_43,44,45,46,47,48,49,50"/>
  <line x1="406.7142857142857" x2="550" y1="430.5" y2="430.5" class="net_42,42,42,42,42,42,42,42"/>
  <line x1="22" x2="22" y1="54.5" y2="21" class="net_NaN,NaN,NaN,NaN,NaN,NaN,NaN,NaN"/>
  <line x1="22" x2="81" y1="21" y2="21" class="net_NaN,NaN,NaN,NaN,NaN,NaN,NaN,NaN"/>
  <line x1="81" x2="81" y1="21" y2="24.5" class="net_NaN,NaN,NaN,NaN,NaN,NaN,NaN,NaN"/>
  <line x1="81" x2="125" y1="24.5" y2="24.5" class="net_NaN,NaN,NaN,NaN,NaN,NaN,NaN,NaN"/>
  <line x1="22" x2="47" y1="54.5" y2="54.5" class="net_NaN,NaN,NaN,NaN,NaN,NaN,NaN,NaN"/>
  <line x1="52" x2="125" y1="44.5" y2="44.5" class="net_NaN,NaN,NaN"/>
  <line x1="347.33333333333337" x2="372" y1="540.5" y2="540.5" class="net_42"/>
  <line x1="372" x2="372" y1="540.5" y2="398" class="net_42"/>
  <line x1="372" x2="401.2142857142857" y1="398" y2="398" class="net_42"/>
  <circle cx="372" cy="540.5" r="2" style="fill:#000" class="net_42"/>
  <line x1="401.2142857142857" x2="401.2142857142857" y1="398" y2="420" class="net_42"/>
  <line x1="347.33333333333337" x2="372" y1="540.5" y2="540.5" class="net_42"/>
  <line x1="372" x2="372" y1="540.5" y2="440.5" class="net_42"/>
  <circle cx="372" cy="440.5" r="2" style="fill:#000" class="net_42"/>
  <line x1="372" x2="400.7142857142857" y1="440.5" y2="440.5" class="net_42"/>
  <line x1="347.33333333333337" x2="372" y1="540.5" y2="540.5" class="net_42"/>
  <line x1="372" x2="372" y1="540.5" y2="460.5" class="net_42"/>
  <circle cx="372" cy="460.5" r="2" style="fill:#000" class="net_42"/>
  <line x1="372" x2="400.7142857142857" y1="460.5" y2="460.5" class="net_42"/>
  <line x1="347.33333333333337" x2="372" y1="540.5" y2="540.5" class="net_42"/>
  <line x1="372" x2="372" y1="540.5" y2="480.5" class="net_42"/>
  <circle cx="372" cy="480.5" r="2" style="fill:#000" class="net_42"/>
  <line x1="372" x2="400.7142857142857" y1="480.5" y2="480.5" class="net_42"/>
  <line x1="347.33333333333337" x2="372" y1="540.5" y2="540.5" class="net_42"/>
  <line x1="372" x2="372" y1="540.5" y2="500.5" class="net_42"/>
  <circle cx="372" cy="500.5" r="2" style="fill:#000" class="net_42"/>
  <line x1="372" x2="400.7142857142857" y1="500.5" y2="500.5" class="net_42"/>
  <line x1="347.33333333333337" x2="372" y1="540.5" y2="540.5" class="net_42"/>
  <line x1="372" x2="372" y1="540.5" y2="520.5" class="net_42"/>
  <circle cx="372" cy="520.5" r="2" style="fill:#000" class="net_42"/>
  <line x1="372" x2="400.7142857142857" y1="520.5" y2="520.5" class="net_42"/>
  <line x1="347.33333333333337" x2="400.7142857142857" y1="540.5" y2="540.5" class="net_42"/>
  <line x1="347.33333333333337" x2="372" y1="540.5" y2="540.5" class="net_42"/>
  <line x1="372" x2="372" y1="540.5" y2="580" class="net_42"/>
  <line x1="372" x2="401.2142857142857" y1="580" y2="580" class="net_42"/>
  <line x1="401.2142857142857" x2="401.2142857142857" y1="580" y2="561" class="net_42"/>
  <line x1="266" x2="310" y1="43" y2="43" class="net_4,5,6,7,8,9,10,11,12,13,14,15"/>
  <line x1="310" x2="310" y1="43" y2="217" class="net_4,5,6,7,8,9,10,11,12,13,14,15"/>
  <line x1="310" x2="332.5" y1="217" y2="217" class="net_4,5,6,7,8,9,10,11,12,13,14,15"/>
  <line x1="332.5" x2="332.5" y1="217" y2="205" class="net_4,5,6,7,8,9,10,11,12,13,14,15"/>
</svg>
