<svg xmlns="http://www.w3.org/2000/svg" xmlns:xlink="http://www.w3.org/1999/xlink" xmlns:s="https://github.com/nturley/netlistsvg" width="821" height="1110">
  <style>svg {
    stroke:#000;
    fill:none;
  }
  text {
    fill:#000;
    stroke:none;
    font-size:10px;
    font-weight: bold;
    font-family: "Courier New", monospace;
  }
  .nodelabel {
    text-anchor: middle;
  }
  .inputPortLabel {
    text-anchor: end;
  }
  .splitjoinBody {
    fill:#000;
  }</style>
  <g s:type="and" transform="translate(189,950.5)" s:width="30" s:height="25" id="cell_$and$Verilog/program_memory.v:23$2051">
    <s:alias val="$and"/>
    <s:alias val="$logic_and"/>
    <s:alias val="$_AND_"/>
    <path d="M0,0 L0,25 L15,25 A15 12.5 0 0 0 15,0 Z" class="cell_$and$Verilog/program_memory.v:23$2051"/>
    <g s:x="0" s:y="5" s:pid="A"/>
    <g s:x="0" s:y="20" s:pid="B"/>
    <g s:x="30" s:y="12.5" s:pid="Y"/>
  </g>
  <g s:type="dff" transform="translate(696,33)" s:width="30" s:height="40" id="cell_$procdff$6171">
    <s:alias val="$dff"/>
    <s:alias val="$_DFF_"/>
    <s:alias val="$_DFF_P_"/>
    <rect width="30" height="40" x="0" y="0" class="cell_$procdff$6171"/>
    <path d="M0,35 L5,30 L0,25" class="cell_$procdff$6171"/>
    <g s:x="30" s:y="10" s:pid="Q"/>
    <g s:x="0" s:y="30" s:pid="CLK"/>
    <g s:x="0" s:y="30" s:pid="C"/>
    <g s:x="0" s:y="10" s:pid="D"/>
  </g>
  <g s:type="mux" transform="translate(274.33333333333337,875.5)" s:width="20" s:height="40" id="cell_$procmux$6160">
    <s:alias val="$pmux"/>
    <s:alias val="$mux"/>
    <s:alias val="$_MUX_"/>
    <path d="M0,0 L20,10 L20,30 L0,40 Z" class="cell_$procmux$6160"/>
    <g s:x="0" s:y="10" s:pid="A"/>
    <g s:x="0" s:y="30" s:pid="B"/>
    <g s:x="10" s:y="35" s:pid="S"/>
    <g s:x="20" s:y="20" s:pid="Y"/>
  </g>
  <g s:type="mux" transform="translate(349,243)" s:width="20" s:height="40" id="cell_$procmux$6163">
    <s:alias val="$pmux"/>
    <s:alias val="$mux"/>
    <s:alias val="$_MUX_"/>
    <path d="M0,0 L20,10 L20,30 L0,40 Z" class="cell_$procmux$6163"/>
    <g s:x="0" s:y="10" s:pid="A"/>
    <g s:x="0" s:y="30" s:pid="B"/>
    <g s:x="10" s:y="35" s:pid="S"/>
    <g s:x="20" s:y="20" s:pid="Y"/>
  </g>
  <g s:type="mux" transform="translate(349,183)" s:width="20" s:height="40" id="cell_$procmux$6166">
    <s:alias val="$pmux"/>
    <s:alias val="$mux"/>
    <s:alias val="$_MUX_"/>
    <path d="M0,0 L20,10 L20,30 L0,40 Z" class="cell_$procmux$6166"/>
    <g s:x="0" s:y="10" s:pid="A"/>
    <g s:x="0" s:y="30" s:pid="B"/>
    <g s:x="10" s:y="35" s:pid="S"/>
    <g s:x="20" s:y="20" s:pid="Y"/>
  </g>
  <g s:type="mux" transform="translate(586,33)" s:width="20" s:height="40" id="cell_$ternary$Verilog/program_memory.v:21$2050">
    <s:alias val="$pmux"/>
    <s:alias val="$mux"/>
    <s:alias val="$_MUX_"/>
    <path d="M0,0 L20,10 L20,30 L0,40 Z" class="cell_$ternary$Verilog/program_memory.v:21$2050"/>
    <g s:x="0" s:y="10" s:pid="A"/>
    <g s:x="0" s:y="30" s:pid="B"/>
    <g s:x="10" s:y="35" s:pid="S"/>
    <g s:x="20" s:y="20" s:pid="Y"/>
  </g>
  <g s:type="mux" transform="translate(641,23)" s:width="20" s:height="40" id="cell_$ternary$Verilog/program_memory.v:25$2052">
    <s:alias val="$pmux"/>
    <s:alias val="$mux"/>
    <s:alias val="$_MUX_"/>
    <path d="M0,0 L20,10 L20,30 L0,40 Z" class="cell_$ternary$Verilog/program_memory.v:25$2052"/>
    <g s:x="0" s:y="10" s:pid="A"/>
    <g s:x="0" s:y="30" s:pid="B"/>
    <g s:x="10" s:y="35" s:pid="S"/>
    <g s:x="20" s:y="20" s:pid="Y"/>
  </g>
  <g s:type="generic" transform="translate(477,32.5)" s:width="30" s:height="40" id="cell_mem">
    <text x="15" y="-4" class="nodelabel cell_mem" s:attribute="ref">$mem_v2</text>
    <rect width="30" height="180" s:generic="body" class="cell_mem"/>
    <g transform="translate(0,10)" s:x="0" s:y="10" s:pid="in0" id="port_mem~RD_ADDR">
      <text x="-3" y="-4" class="inputPortLabel cell_mem">RD_ADDR</text>
    </g>
    <g transform="translate(0,30)" s:x="0" s:y="10" s:pid="in0" id="port_mem~RD_ARST">
      <text x="-3" y="-4" class="inputPortLabel cell_mem">RD_ARST</text>
    </g>
    <g transform="translate(0,50)" s:x="0" s:y="10" s:pid="in0" id="port_mem~RD_CLK">
      <text x="-3" y="-4" class="inputPortLabel cell_mem">RD_CLK</text>
    </g>
    <g transform="translate(0,70)" s:x="0" s:y="10" s:pid="in0" id="port_mem~RD_EN">
      <text x="-3" y="-4" class="inputPortLabel cell_mem">RD_EN</text>
    </g>
    <g transform="translate(0,90)" s:x="0" s:y="10" s:pid="in0" id="port_mem~RD_SRST">
      <text x="-3" y="-4" class="inputPortLabel cell_mem">RD_SRST</text>
    </g>
    <g transform="translate(0,110)" s:x="0" s:y="10" s:pid="in0" id="port_mem~WR_ADDR">
      <text x="-3" y="-4" class="inputPortLabel cell_mem">WR_ADDR</text>
    </g>
    <g transform="translate(0,130)" s:x="0" s:y="10" s:pid="in0" id="port_mem~WR_CLK">
      <text x="-3" y="-4" class="inputPortLabel cell_mem">WR_CLK</text>
    </g>
    <g transform="translate(0,150)" s:x="0" s:y="10" s:pid="in0" id="port_mem~WR_DATA">
      <text x="-3" y="-4" class="inputPortLabel cell_mem">WR_DATA</text>
    </g>
    <g transform="translate(0,170)" s:x="0" s:y="10" s:pid="in0" id="port_mem~WR_EN">
      <text x="-3" y="-4" class="inputPortLabel cell_mem">WR_EN</text>
    </g>
    <g transform="translate(30,10)" s:x="30" s:y="10" s:pid="out0" id="port_mem~RD_DATA">
      <text x="5" y="-4" style="fill:#000; stroke:none" class="cell_mem">RD_DATA</text>
    </g>
  </g>
  <g s:type="inputExt" transform="translate(344,1045)" s:width="30" s:height="20" id="cell_clk">
    <text x="15" y="-4" class="nodelabel cell_clk" s:attribute="ref">clk</text>
    <s:alias val="$_inputExt_"/>
    <path d="M0,0 L0,20 L15,20 L30,10 L15,0 Z" class="cell_clk"/>
    <g s:x="28" s:y="10" s:pid="Y"/>
  </g>
  <g s:type="inputExt" transform="translate(90,945.5)" s:width="30" s:height="20" id="cell_enable">
    <text x="15" y="-4" class="nodelabel cell_enable" s:attribute="ref">enable</text>
    <s:alias val="$_inputExt_"/>
    <path d="M0,0 L0,20 L15,20 L30,10 L15,0 Z" class="cell_enable"/>
    <g s:x="28" s:y="10" s:pid="Y"/>
  </g>
  <g s:type="inputExt" transform="translate(185,97)" s:width="30" s:height="20" id="cell_address">
    <text x="15" y="-4" class="nodelabel cell_address" s:attribute="ref">address</text>
    <s:alias val="$_inputExt_"/>
    <path d="M0,0 L0,20 L15,20 L30,10 L15,0 Z" class="cell_address"/>
    <g s:x="28" s:y="10" s:pid="Y"/>
  </g>
  <g s:type="inputExt" transform="translate(90,1065)" s:width="30" s:height="20" id="cell_read_write">
    <text x="15" y="-4" class="nodelabel cell_read_write" s:attribute="ref">read_write</text>
    <s:alias val="$_inputExt_"/>
    <path d="M0,0 L0,20 L15,20 L30,10 L15,0 Z" class="cell_read_write"/>
    <g s:x="28" s:y="10" s:pid="Y"/>
  </g>
  <g s:type="inputExt" transform="translate(267,263)" s:width="30" s:height="20" id="cell_data_in">
    <text x="15" y="-4" class="nodelabel cell_data_in" s:attribute="ref">data_in</text>
    <s:alias val="$_inputExt_"/>
    <path d="M0,0 L0,20 L15,20 L30,10 L15,0 Z" class="cell_data_in"/>
    <g s:x="28" s:y="10" s:pid="Y"/>
  </g>
  <g s:type="outputExt" transform="translate(761,33)" s:width="30" s:height="20" id="cell_data_out">
    <text x="15" y="-4" class="nodelabel cell_data_out" s:attribute="ref">data_out</text>
    <s:alias val="$_outputExt_"/>
    <path d="M30,0 L30,20 L15,20 L0,10 L15,0 Z" class="cell_data_out"/>
    <g s:x="0" s:y="10" s:pid="A"/>
  </g>
  <g s:type="constant" transform="translate(185,162)" s:width="30" s:height="20" id="cell_0">
    <text x="15" y="-4" class="nodelabel cell_0" s:attribute="ref">0</text>
    <s:alias val="$_constant_"/>
    <rect width="30" height="20" class="cell_0"/>
    <g s:x="30" s:y="10" s:pid="Y"/>
  </g>
  <g s:type="constant" transform="translate(185,895.5)" s:width="30" s:height="20" id="cell_1">
    <text x="15" y="-4" class="nodelabel cell_1" s:attribute="ref">1</text>
    <s:alias val="$_constant_"/>
    <rect width="30" height="20" class="cell_1"/>
    <g s:x="30" s:y="10" s:pid="Y"/>
  </g>
  <g s:type="join" transform="translate(72,12)" s:width="4" s:height="40" id="cell_$join$,x,x,x,x,x,x,x,x,x,x,x,x,x,x,x,x,x,x,x,x,x,x,x,x,x,x,x,x,x,x,x,x,">
    <rect width="5" height="40" class="splitjoinBody" s:generic="body"/>
    <s:alias val="$_join_"/>
    <g s:x="5" s:y="20" s:pid="out"/>
    <g transform="translate(0,10)" s:x="0" s:y="10" s:pid="in0">
      <text x="-3" y="-4" class="inputPortLabel">0:10</text>
    </g>
  </g>
  <g s:type="join" transform="translate(345.03999999999996,345)" s:width="4" s:height="40" id="cell_$join$,114,114,114,114,114,114,114,114,114,114,114,114,114,114,114,114,114,114,114,114,114,114,114,114,114,114,114,114,114,114,114,114,">
    <rect width="5" height="640" class="splitjoinBody" s:generic="body"/>
    <s:alias val="$_join_"/>
    <g s:x="5" s:y="20" s:pid="out"/>
    <g transform="translate(0,10)" s:x="0" s:y="10" s:pid="in0">
      <text x="-3" y="-4" class="inputPortLabel">0</text>
    </g>
    <g transform="translate(0,30)" s:x="0" s:y="10" s:pid="in0">
      <text x="-3" y="-4" class="inputPortLabel">1</text>
    </g>
    <g transform="translate(0,50)" s:x="0" s:y="10" s:pid="in0">
      <text x="-3" y="-4" class="inputPortLabel">2</text>
    </g>
    <g transform="translate(0,70)" s:x="0" s:y="10" s:pid="in0">
      <text x="-3" y="-4" class="inputPortLabel">3</text>
    </g>
    <g transform="translate(0,90)" s:x="0" s:y="10" s:pid="in0">
      <text x="-3" y="-4" class="inputPortLabel">4</text>
    </g>
    <g transform="translate(0,110)" s:x="0" s:y="10" s:pid="in0">
      <text x="-3" y="-4" class="inputPortLabel">5</text>
    </g>
    <g transform="translate(0,130)" s:x="0" s:y="10" s:pid="in0">
      <text x="-3" y="-4" class="inputPortLabel">6</text>
    </g>
    <g transform="translate(0,150)" s:x="0" s:y="10" s:pid="in0">
      <text x="-3" y="-4" class="inputPortLabel">7</text>
    </g>
    <g transform="translate(0,170)" s:x="0" s:y="10" s:pid="in0">
      <text x="-3" y="-4" class="inputPortLabel">8</text>
    </g>
    <g transform="translate(0,190)" s:x="0" s:y="10" s:pid="in0">
      <text x="-3" y="-4" class="inputPortLabel">9</text>
    </g>
    <g transform="translate(0,210)" s:x="0" s:y="10" s:pid="in0">
      <text x="-3" y="-4" class="inputPortLabel">10</text>
    </g>
    <g transform="translate(0,230)" s:x="0" s:y="10" s:pid="in0">
      <text x="-3" y="-4" class="inputPortLabel">11</text>
    </g>
    <g transform="translate(0,250)" s:x="0" s:y="10" s:pid="in0">
      <text x="-3" y="-4" class="inputPortLabel">12</text>
    </g>
    <g transform="translate(0,270)" s:x="0" s:y="10" s:pid="in0">
      <text x="-3" y="-4" class="inputPortLabel">13</text>
    </g>
    <g transform="translate(0,290)" s:x="0" s:y="10" s:pid="in0">
      <text x="-3" y="-4" class="inputPortLabel">14</text>
    </g>
    <g transform="translate(0,310)" s:x="0" s:y="10" s:pid="in0">
      <text x="-3" y="-4" class="inputPortLabel">15</text>
    </g>
    <g transform="translate(0,330)" s:x="0" s:y="10" s:pid="in0">
      <text x="-3" y="-4" class="inputPortLabel">16</text>
    </g>
    <g transform="translate(0,350)" s:x="0" s:y="10" s:pid="in0">
      <text x="-3" y="-4" class="inputPortLabel">17</text>
    </g>
    <g transform="translate(0,370)" s:x="0" s:y="10" s:pid="in0">
      <text x="-3" y="-4" class="inputPortLabel">18</text>
    </g>
    <g transform="translate(0,390)" s:x="0" s:y="10" s:pid="in0">
      <text x="-3" y="-4" class="inputPortLabel">19</text>
    </g>
    <g transform="translate(0,410)" s:x="0" s:y="10" s:pid="in0">
      <text x="-3" y="-4" class="inputPortLabel">20</text>
    </g>
    <g transform="translate(0,430)" s:x="0" s:y="10" s:pid="in0">
      <text x="-3" y="-4" class="inputPortLabel">21</text>
    </g>
    <g transform="translate(0,450)" s:x="0" s:y="10" s:pid="in0">
      <text x="-3" y="-4" class="inputPortLabel">22</text>
    </g>
    <g transform="translate(0,470)" s:x="0" s:y="10" s:pid="in0">
      <text x="-3" y="-4" class="inputPortLabel">23</text>
    </g>
    <g transform="translate(0,490)" s:x="0" s:y="10" s:pid="in0">
      <text x="-3" y="-4" class="inputPortLabel">24</text>
    </g>
    <g transform="translate(0,510)" s:x="0" s:y="10" s:pid="in0">
      <text x="-3" y="-4" class="inputPortLabel">25</text>
    </g>
    <g transform="translate(0,530)" s:x="0" s:y="10" s:pid="in0">
      <text x="-3" y="-4" class="inputPortLabel">26</text>
    </g>
    <g transform="translate(0,550)" s:x="0" s:y="10" s:pid="in0">
      <text x="-3" y="-4" class="inputPortLabel">27</text>
    </g>
    <g transform="translate(0,570)" s:x="0" s:y="10" s:pid="in0">
      <text x="-3" y="-4" class="inputPortLabel">28</text>
    </g>
    <g transform="translate(0,590)" s:x="0" s:y="10" s:pid="in0">
      <text x="-3" y="-4" class="inputPortLabel">29</text>
    </g>
    <g transform="translate(0,610)" s:x="0" s:y="10" s:pid="in0">
      <text x="-3" y="-4" class="inputPortLabel">30</text>
    </g>
    <g transform="translate(0,630)" s:x="0" s:y="10" s:pid="in0">
      <text x="-3" y="-4" class="inputPortLabel">31</text>
    </g>
  </g>
  <g s:type="split" transform="translate(279,74)" s:width="5" s:height="40" id="cell_$split$,4,5,6,7,8,9,10,11,12,13,14,15,">
    <rect width="5" height="20" class="splitjoinBody" s:generic="body"/>
    <s:alias val="$_split_"/>
    <g s:x="0" s:y="20" s:pid="in"/>
    <g transform="translate(4,10)" s:x="4" s:y="10" s:pid="out0">
      <text x="5" y="-4">0:10</text>
    </g>
  </g>
  <g s:type="split" transform="translate(60,87)" s:width="5" s:height="40" id="cell_$split$,x,x,x,x,x,x,x,x,x,x,x,">
    <rect width="5" height="20" class="splitjoinBody" s:generic="body"/>
    <s:alias val="$_split_"/>
    <g s:x="0" s:y="20" s:pid="in"/>
    <g transform="translate(4,10)" s:x="4" s:y="10" s:pid="out0">
      <text x="5" y="-4">0</text>
    </g>
  </g>
  <line x1="118" x2="189" y1="955.5" y2="955.5" class="net_3"/>
  <line x1="118" x2="160" y1="955.5" y2="955.5" class="net_3"/>
  <line x1="160" x2="160" y1="955.5" y2="1097" class="net_3"/>
  <line x1="160" x2="651" y1="1097" y2="1097" class="net_3"/>
  <circle cx="160" cy="955.5" r="2" style="fill:#000" class="net_3"/>
  <line x1="651" x2="651" y1="1097" y2="58" class="net_3"/>
  <line x1="118" x2="170" y1="1075" y2="1075" class="net_16"/>
  <line x1="170" x2="170" y1="1075" y2="970.5" class="net_16"/>
  <circle cx="170" cy="1075" r="2" style="fill:#000" class="net_16"/>
  <line x1="170" x2="189" y1="970.5" y2="970.5" class="net_16"/>
  <line x1="118" x2="596" y1="1075" y2="1075" class="net_16"/>
  <line x1="596" x2="596" y1="1075" y2="68" class="net_16"/>
  <line x1="372" x2="414" y1="1055" y2="1055" class="net_2"/>
  <line x1="414" x2="414" y1="1055" y2="1086" class="net_2"/>
  <line x1="414" x2="671" y1="1086" y2="1086" class="net_2"/>
  <line x1="671" x2="671" y1="1086" y2="63" class="net_2"/>
  <circle cx="414" cy="1055" r="2" style="fill:#000" class="net_2"/>
  <line x1="671" x2="696" y1="63" y2="63" class="net_2"/>
  <line x1="372" x2="414" y1="1055" y2="1055" class="net_2"/>
  <line x1="414" x2="414" y1="1055" y2="163" class="net_2"/>
  <line x1="414" x2="477" y1="163" y2="163" class="net_2"/>
  <line x1="661" x2="696" y1="43" y2="43" class="net_82,83,84,85,86,87,88,89,90,91,92,93,94,95,96,97,98,99,100,101,102,103,104,105,106,107,108,109,110,111,112,113"/>
  <line x1="215" x2="237" y1="172" y2="172" class="net_222"/>
  <line x1="237" x2="237" y1="172" y2="885.5" class="net_222"/>
  <circle cx="237" cy="172" r="2" style="fill:#000" class="net_222"/>
  <line x1="237" x2="274.33333333333337" y1="885.5" y2="885.5" class="net_222"/>
  <line x1="215" x2="237" y1="172" y2="172" class="net_222"/>
  <line x1="237" x2="237" y1="172" y2="63" class="net_222"/>
  <line x1="237" x2="477" y1="63" y2="63" class="net_222"/>
  <line x1="215" x2="384" y1="172" y2="172" class="net_222"/>
  <line x1="384" x2="384" y1="172" y2="123" class="net_222"/>
  <line x1="384" x2="477" y1="123" y2="123" class="net_222"/>
  <line x1="215" x2="274.33333333333337" y1="905.5" y2="905.5" class="net_223"/>
  <line x1="215" x2="247" y1="905.5" y2="905.5" class="net_223"/>
  <line x1="247" x2="247" y1="905.5" y2="117" class="net_223"/>
  <line x1="247" x2="384" y1="117" y2="117" class="net_223"/>
  <line x1="384" x2="384" y1="117" y2="103" class="net_223"/>
  <circle cx="247" cy="905.5" r="2" style="fill:#000" class="net_223"/>
  <line x1="384" x2="477" y1="103" y2="103" class="net_223"/>
  <line x1="219" x2="257" y1="963" y2="963" class="net_81"/>
  <line x1="257" x2="257" y1="963" y2="925.5" class="net_81"/>
  <line x1="257" x2="284.33333333333337" y1="925.5" y2="925.5" class="net_81"/>
  <circle cx="257" cy="925.5" r="2" style="fill:#000" class="net_81"/>
  <line x1="284.33333333333337" x2="284.33333333333337" y1="925.5" y2="910.5" class="net_81"/>
  <line x1="219" x2="257" y1="963" y2="963" class="net_81"/>
  <line x1="257" x2="257" y1="963" y2="293" class="net_81"/>
  <line x1="257" x2="359" y1="293" y2="293" class="net_81"/>
  <circle cx="257" cy="293" r="2" style="fill:#000" class="net_81"/>
  <line x1="359" x2="359" y1="293" y2="278" class="net_81"/>
  <line x1="219" x2="257" y1="963" y2="963" class="net_81"/>
  <line x1="257" x2="257" y1="963" y2="233" class="net_81"/>
  <line x1="257" x2="359" y1="233" y2="233" class="net_81"/>
  <line x1="359" x2="359" y1="233" y2="218" class="net_81"/>
  <line x1="295" x2="349" y1="273" y2="273" class="net_17,18,19,20,21,22,23,24,25,26,27,28,29,30,31,32,33,34,35,36,37,38,39,40,41,42,43,44,45,46,47,48"/>
  <line x1="284" x2="319" y1="84.5" y2="84.5" class="net_4,5,6,7,8,9,10,11,12,13,14"/>
  <line x1="319" x2="319" y1="84.5" y2="213" class="net_4,5,6,7,8,9,10,11,12,13,14"/>
  <circle cx="319" cy="84.5" r="2" style="fill:#000" class="net_4,5,6,7,8,9,10,11,12,13,14"/>
  <line x1="319" x2="349" y1="213" y2="213" class="net_4,5,6,7,8,9,10,11,12,13,14"/>
  <line x1="284" x2="319" y1="84.5" y2="84.5" class="net_4,5,6,7,8,9,10,11,12,13,14"/>
  <line x1="319" x2="319" y1="84.5" y2="43" class="net_4,5,6,7,8,9,10,11,12,13,14"/>
  <line x1="319" x2="477" y1="43" y2="43" class="net_4,5,6,7,8,9,10,11,12,13,14"/>
  <line x1="508" x2="586" y1="43" y2="43" class="net_158,159,160,161,162,163,164,165,166,167,168,169,170,171,172,173,174,175,176,177,178,179,180,181,182,183,184,185,186,187,188,189"/>
  <line x1="726" x2="736" y1="43" y2="43" class="net_49,50,51,52,53,54,55,56,57,58,59,60,61,62,63,64,65,66,67,68,69,70,71,72,73,74,75,76,77,78,79,80"/>
  <line x1="736" x2="736" y1="43" y2="12" class="net_49,50,51,52,53,54,55,56,57,58,59,60,61,62,63,64,65,66,67,68,69,70,71,72,73,74,75,76,77,78,79,80"/>
  <line x1="736" x2="561" y1="12" y2="12" class="net_49,50,51,52,53,54,55,56,57,58,59,60,61,62,63,64,65,66,67,68,69,70,71,72,73,74,75,76,77,78,79,80"/>
  <line x1="561" x2="561" y1="12" y2="63" class="net_49,50,51,52,53,54,55,56,57,58,59,60,61,62,63,64,65,66,67,68,69,70,71,72,73,74,75,76,77,78,79,80"/>
  <circle cx="736" cy="43" r="2" style="fill:#000" class="net_49,50,51,52,53,54,55,56,57,58,59,60,61,62,63,64,65,66,67,68,69,70,71,72,73,74,75,76,77,78,79,80"/>
  <line x1="561" x2="586" y1="63" y2="63" class="net_49,50,51,52,53,54,55,56,57,58,59,60,61,62,63,64,65,66,67,68,69,70,71,72,73,74,75,76,77,78,79,80"/>
  <line x1="726" x2="736" y1="43" y2="43" class="net_49,50,51,52,53,54,55,56,57,58,59,60,61,62,63,64,65,66,67,68,69,70,71,72,73,74,75,76,77,78,79,80"/>
  <line x1="736" x2="736" y1="43" y2="12" class="net_49,50,51,52,53,54,55,56,57,58,59,60,61,62,63,64,65,66,67,68,69,70,71,72,73,74,75,76,77,78,79,80"/>
  <line x1="736" x2="616" y1="12" y2="12" class="net_49,50,51,52,53,54,55,56,57,58,59,60,61,62,63,64,65,66,67,68,69,70,71,72,73,74,75,76,77,78,79,80"/>
  <line x1="616" x2="616" y1="12" y2="33" class="net_49,50,51,52,53,54,55,56,57,58,59,60,61,62,63,64,65,66,67,68,69,70,71,72,73,74,75,76,77,78,79,80"/>
  <circle cx="616" cy="12" r="2" style="fill:#000" class="net_49,50,51,52,53,54,55,56,57,58,59,60,61,62,63,64,65,66,67,68,69,70,71,72,73,74,75,76,77,78,79,80"/>
  <line x1="616" x2="641" y1="33" y2="33" class="net_49,50,51,52,53,54,55,56,57,58,59,60,61,62,63,64,65,66,67,68,69,70,71,72,73,74,75,76,77,78,79,80"/>
  <line x1="726" x2="761" y1="43" y2="43" class="net_49,50,51,52,53,54,55,56,57,58,59,60,61,62,63,64,65,66,67,68,69,70,71,72,73,74,75,76,77,78,79,80"/>
  <line x1="606" x2="641" y1="53" y2="53" class="net_190,191,192,193,194,195,196,197,198,199,200,201,202,203,204,205,206,207,208,209,210,211,212,213,214,215,216,217,218,219,220,221"/>
  <line x1="369" x2="394" y1="203" y2="203" class="net_147,148,149,150,151,152,153,154,155,156,157"/>
  <line x1="394" x2="394" y1="203" y2="143" class="net_147,148,149,150,151,152,153,154,155,156,157"/>
  <line x1="394" x2="477" y1="143" y2="143" class="net_147,148,149,150,151,152,153,154,155,156,157"/>
  <line x1="369" x2="404" y1="263" y2="263" class="net_115,116,117,118,119,120,121,122,123,124,125,126,127,128,129,130,131,132,133,134,135,136,137,138,139,140,141,142,143,144,145,146"/>
  <line x1="404" x2="404" y1="263" y2="183" class="net_115,116,117,118,119,120,121,122,123,124,125,126,127,128,129,130,131,132,133,134,135,136,137,138,139,140,141,142,143,144,145,146"/>
  <line x1="404" x2="477" y1="183" y2="183" class="net_115,116,117,118,119,120,121,122,123,124,125,126,127,128,129,130,131,132,133,134,135,136,137,138,139,140,141,142,143,144,145,146"/>
  <line x1="351.03999999999996" x2="424" y1="365.5" y2="365.5" class="net_114,114,114,114,114,114,114,114,114,114,114,114,114,114,114,114,114,114,114,114,114,114,114,114,114,114,114,114,114,114,114,114"/>
  <line x1="424" x2="424" y1="365.5" y2="203" class="net_114,114,114,114,114,114,114,114,114,114,114,114,114,114,114,114,114,114,114,114,114,114,114,114,114,114,114,114,114,114,114,114"/>
  <line x1="424" x2="477" y1="203" y2="203" class="net_114,114,114,114,114,114,114,114,114,114,114,114,114,114,114,114,114,114,114,114,114,114,114,114,114,114,114,114,114,114,114,114"/>
  <line x1="22" x2="72" y1="22.5" y2="22.5" class="net_NaN,NaN,NaN,NaN,NaN,NaN,NaN,NaN,NaN,NaN,NaN"/>
  <line x1="22" x2="22" y1="22.5" y2="120" class="net_NaN,NaN,NaN,NaN,NaN,NaN,NaN,NaN,NaN,NaN,NaN"/>
  <line x1="22" x2="60.5" y1="120" y2="120" class="net_NaN,NaN,NaN,NaN,NaN,NaN,NaN,NaN,NaN,NaN,NaN"/>
  <line x1="60.5" x2="60.5" y1="120" y2="108" class="net_NaN,NaN,NaN,NaN,NaN,NaN,NaN,NaN,NaN,NaN,NaN"/>
  <line x1="294.33333333333337" x2="319" y1="895.5" y2="895.5" class="net_114"/>
  <line x1="319" x2="319" y1="895.5" y2="333" class="net_114"/>
  <line x1="319" x2="345.53999999999996" y1="333" y2="333" class="net_114"/>
  <circle cx="319" cy="895.5" r="2" style="fill:#000" class="net_114"/>
  <circle cx="319" cy="333" r="2" style="fill:#000" class="net_114"/>
  <line x1="345.53999999999996" x2="345.53999999999996" y1="333" y2="355" class="net_114"/>
  <line x1="294.33333333333337" x2="319" y1="895.5" y2="895.5" class="net_114"/>
  <line x1="319" x2="319" y1="895.5" y2="323" class="net_114"/>
  <line x1="319" x2="345.53999999999996" y1="323" y2="323" class="net_114"/>
  <circle cx="319" cy="323" r="2" style="fill:#000" class="net_114"/>
  <line x1="345.53999999999996" x2="345.53999999999996" y1="323" y2="375" class="net_114"/>
  <line x1="294.33333333333337" x2="319" y1="895.5" y2="895.5" class="net_114"/>
  <line x1="319" x2="319" y1="895.5" y2="313" class="net_114"/>
  <line x1="319" x2="345.53999999999996" y1="313" y2="313" class="net_114"/>
  <circle cx="319" cy="313" r="2" style="fill:#000" class="net_114"/>
  <line x1="345.53999999999996" x2="345.53999999999996" y1="313" y2="395" class="net_114"/>
  <line x1="294.33333333333337" x2="319" y1="895.5" y2="895.5" class="net_114"/>
  <line x1="319" x2="319" y1="895.5" y2="303" class="net_114"/>
  <line x1="319" x2="345.53999999999996" y1="303" y2="303" class="net_114"/>
  <line x1="345.53999999999996" x2="345.53999999999996" y1="303" y2="415" class="net_114"/>
  <line x1="294.33333333333337" x2="319" y1="895.5" y2="895.5" class="net_114"/>
  <line x1="319" x2="319" y1="895.5" y2="435.5" class="net_114"/>
  <circle cx="319" cy="435.5" r="2" style="fill:#000" class="net_114"/>
  <line x1="319" x2="345.03999999999996" y1="435.5" y2="435.5" class="net_114"/>
  <line x1="294.33333333333337" x2="319" y1="895.5" y2="895.5" class="net_114"/>
  <line x1="319" x2="319" y1="895.5" y2="455.5" class="net_114"/>
  <circle cx="319" cy="455.5" r="2" style="fill:#000" class="net_114"/>
  <line x1="319" x2="345.03999999999996" y1="455.5" y2="455.5" class="net_114"/>
  <line x1="294.33333333333337" x2="319" y1="895.5" y2="895.5" class="net_114"/>
  <line x1="319" x2="319" y1="895.5" y2="475.5" class="net_114"/>
  <circle cx="319" cy="475.5" r="2" style="fill:#000" class="net_114"/>
  <line x1="319" x2="345.03999999999996" y1="475.5" y2="475.5" class="net_114"/>
  <line x1="294.33333333333337" x2="319" y1="895.5" y2="895.5" class="net_114"/>
  <line x1="319" x2="319" y1="895.5" y2="495.5" class="net_114"/>
  <circle cx="319" cy="495.5" r="2" style="fill:#000" class="net_114"/>
  <line x1="319" x2="345.03999999999996" y1="495.5" y2="495.5" class="net_114"/>
  <line x1="294.33333333333337" x2="319" y1="895.5" y2="895.5" class="net_114"/>
  <line x1="319" x2="319" y1="895.5" y2="515.5" class="net_114"/>
  <circle cx="319" cy="515.5" r="2" style="fill:#000" class="net_114"/>
  <line x1="319" x2="345.03999999999996" y1="515.5" y2="515.5" class="net_114"/>
  <line x1="294.33333333333337" x2="319" y1="895.5" y2="895.5" class="net_114"/>
  <line x1="319" x2="319" y1="895.5" y2="535.5" class="net_114"/>
  <circle cx="319" cy="535.5" r="2" style="fill:#000" class="net_114"/>
  <line x1="319" x2="345.03999999999996" y1="535.5" y2="535.5" class="net_114"/>
  <line x1="294.33333333333337" x2="319" y1="895.5" y2="895.5" class="net_114"/>
  <line x1="319" x2="319" y1="895.5" y2="555.5" class="net_114"/>
  <circle cx="319" cy="555.5" r="2" style="fill:#000" class="net_114"/>
  <line x1="319" x2="345.03999999999996" y1="555.5" y2="555.5" class="net_114"/>
  <line x1="294.33333333333337" x2="319" y1="895.5" y2="895.5" class="net_114"/>
  <line x1="319" x2="319" y1="895.5" y2="575.5" class="net_114"/>
  <circle cx="319" cy="575.5" r="2" style="fill:#000" class="net_114"/>
  <line x1="319" x2="345.03999999999996" y1="575.5" y2="575.5" class="net_114"/>
  <line x1="294.33333333333337" x2="319" y1="895.5" y2="895.5" class="net_114"/>
  <line x1="319" x2="319" y1="895.5" y2="595.5" class="net_114"/>
  <circle cx="319" cy="595.5" r="2" style="fill:#000" class="net_114"/>
  <line x1="319" x2="345.03999999999996" y1="595.5" y2="595.5" class="net_114"/>
  <line x1="294.33333333333337" x2="319" y1="895.5" y2="895.5" class="net_114"/>
  <line x1="319" x2="319" y1="895.5" y2="615.5" class="net_114"/>
  <circle cx="319" cy="615.5" r="2" style="fill:#000" class="net_114"/>
  <line x1="319" x2="345.03999999999996" y1="615.5" y2="615.5" class="net_114"/>
  <line x1="294.33333333333337" x2="319" y1="895.5" y2="895.5" class="net_114"/>
  <line x1="319" x2="319" y1="895.5" y2="635.5" class="net_114"/>
  <circle cx="319" cy="635.5" r="2" style="fill:#000" class="net_114"/>
  <line x1="319" x2="345.03999999999996" y1="635.5" y2="635.5" class="net_114"/>
  <line x1="294.33333333333337" x2="319" y1="895.5" y2="895.5" class="net_114"/>
  <line x1="319" x2="319" y1="895.5" y2="655.5" class="net_114"/>
  <circle cx="319" cy="655.5" r="2" style="fill:#000" class="net_114"/>
  <line x1="319" x2="345.03999999999996" y1="655.5" y2="655.5" class="net_114"/>
  <line x1="294.33333333333337" x2="319" y1="895.5" y2="895.5" class="net_114"/>
  <line x1="319" x2="319" y1="895.5" y2="675.5" class="net_114"/>
  <circle cx="319" cy="675.5" r="2" style="fill:#000" class="net_114"/>
  <line x1="319" x2="345.03999999999996" y1="675.5" y2="675.5" class="net_114"/>
  <line x1="294.33333333333337" x2="319" y1="895.5" y2="895.5" class="net_114"/>
  <line x1="319" x2="319" y1="895.5" y2="695.5" class="net_114"/>
  <circle cx="319" cy="695.5" r="2" style="fill:#000" class="net_114"/>
  <line x1="319" x2="345.03999999999996" y1="695.5" y2="695.5" class="net_114"/>
  <line x1="294.33333333333337" x2="319" y1="895.5" y2="895.5" class="net_114"/>
  <line x1="319" x2="319" y1="895.5" y2="715.5" class="net_114"/>
  <circle cx="319" cy="715.5" r="2" style="fill:#000" class="net_114"/>
  <line x1="319" x2="345.03999999999996" y1="715.5" y2="715.5" class="net_114"/>
  <line x1="294.33333333333337" x2="319" y1="895.5" y2="895.5" class="net_114"/>
  <line x1="319" x2="319" y1="895.5" y2="735.5" class="net_114"/>
  <circle cx="319" cy="735.5" r="2" style="fill:#000" class="net_114"/>
  <line x1="319" x2="345.03999999999996" y1="735.5" y2="735.5" class="net_114"/>
  <line x1="294.33333333333337" x2="319" y1="895.5" y2="895.5" class="net_114"/>
  <line x1="319" x2="319" y1="895.5" y2="755.5" class="net_114"/>
  <circle cx="319" cy="755.5" r="2" style="fill:#000" class="net_114"/>
  <line x1="319" x2="345.03999999999996" y1="755.5" y2="755.5" class="net_114"/>
  <line x1="294.33333333333337" x2="319" y1="895.5" y2="895.5" class="net_114"/>
  <line x1="319" x2="319" y1="895.5" y2="775.5" class="net_114"/>
  <circle cx="319" cy="775.5" r="2" style="fill:#000" class="net_114"/>
  <line x1="319" x2="345.03999999999996" y1="775.5" y2="775.5" class="net_114"/>
  <line x1="294.33333333333337" x2="319" y1="895.5" y2="895.5" class="net_114"/>
  <line x1="319" x2="319" y1="895.5" y2="795.5" class="net_114"/>
  <circle cx="319" cy="795.5" r="2" style="fill:#000" class="net_114"/>
  <line x1="319" x2="345.03999999999996" y1="795.5" y2="795.5" class="net_114"/>
  <line x1="294.33333333333337" x2="319" y1="895.5" y2="895.5" class="net_114"/>
  <line x1="319" x2="319" y1="895.5" y2="815.5" class="net_114"/>
  <circle cx="319" cy="815.5" r="2" style="fill:#000" class="net_114"/>
  <line x1="319" x2="345.03999999999996" y1="815.5" y2="815.5" class="net_114"/>
  <line x1="294.33333333333337" x2="319" y1="895.5" y2="895.5" class="net_114"/>
  <line x1="319" x2="319" y1="895.5" y2="835.5" class="net_114"/>
  <circle cx="319" cy="835.5" r="2" style="fill:#000" class="net_114"/>
  <line x1="319" x2="345.03999999999996" y1="835.5" y2="835.5" class="net_114"/>
  <line x1="294.33333333333337" x2="319" y1="895.5" y2="895.5" class="net_114"/>
  <line x1="319" x2="319" y1="895.5" y2="855.5" class="net_114"/>
  <circle cx="319" cy="855.5" r="2" style="fill:#000" class="net_114"/>
  <line x1="319" x2="345.03999999999996" y1="855.5" y2="855.5" class="net_114"/>
  <line x1="294.33333333333337" x2="319" y1="895.5" y2="895.5" class="net_114"/>
  <line x1="319" x2="319" y1="895.5" y2="875.5" class="net_114"/>
  <circle cx="319" cy="875.5" r="2" style="fill:#000" class="net_114"/>
  <line x1="319" x2="345.03999999999996" y1="875.5" y2="875.5" class="net_114"/>
  <line x1="294.33333333333337" x2="345.03999999999996" y1="895.5" y2="895.5" class="net_114"/>
  <line x1="294.33333333333337" x2="319" y1="895.5" y2="895.5" class="net_114"/>
  <line x1="319" x2="319" y1="895.5" y2="1025" class="net_114"/>
  <line x1="319" x2="345.53999999999996" y1="1025" y2="1025" class="net_114"/>
  <line x1="345.53999999999996" x2="345.53999999999996" y1="1025" y2="916" class="net_114"/>
  <line x1="294.33333333333337" x2="319" y1="895.5" y2="895.5" class="net_114"/>
  <line x1="319" x2="319" y1="895.5" y2="1015" class="net_114"/>
  <line x1="319" x2="345.53999999999996" y1="1015" y2="1015" class="net_114"/>
  <circle cx="319" cy="1015" r="2" style="fill:#000" class="net_114"/>
  <line x1="345.53999999999996" x2="345.53999999999996" y1="1015" y2="936" class="net_114"/>
  <line x1="294.33333333333337" x2="319" y1="895.5" y2="895.5" class="net_114"/>
  <line x1="319" x2="319" y1="895.5" y2="1005" class="net_114"/>
  <line x1="319" x2="345.53999999999996" y1="1005" y2="1005" class="net_114"/>
  <circle cx="319" cy="1005" r="2" style="fill:#000" class="net_114"/>
  <line x1="345.53999999999996" x2="345.53999999999996" y1="1005" y2="956" class="net_114"/>
  <line x1="294.33333333333337" x2="319" y1="895.5" y2="895.5" class="net_114"/>
  <line x1="319" x2="319" y1="895.5" y2="995" class="net_114"/>
  <line x1="319" x2="345.53999999999996" y1="995" y2="995" class="net_114"/>
  <circle cx="319" cy="995" r="2" style="fill:#000" class="net_114"/>
  <line x1="345.53999999999996" x2="345.53999999999996" y1="995" y2="976" class="net_114"/>
  <line x1="213" x2="279.5" y1="107" y2="107" class="net_4,5,6,7,8,9,10,11,12,13,14,15"/>
  <line x1="279.5" x2="279.5" y1="107" y2="95" class="net_4,5,6,7,8,9,10,11,12,13,14,15"/>
</svg>
