<svg xmlns="http://www.w3.org/2000/svg" xmlns:xlink="http://www.w3.org/1999/xlink" xmlns:s="https://github.com/nturley/netlistsvg" width="427" height="314">
  <style>svg {
    stroke:#000;
    fill:none;
  }
  text {
    fill:#000;
    stroke:none;
    font-size:10px;
    font-weight: bold;
    font-family: "Courier New", monospace;
  }
  .nodelabel {
    text-anchor: middle;
  }
  .inputPortLabel {
    text-anchor: end;
  }
  .splitjoinBody {
    fill:#000;
  }</style>
  <g s:type="add" transform="translate(94.33333333333334,22)" s:width="25" s:height="25" id="cell_$add$Verilog/programme_counter.v:28$4">
    <s:alias val="$add"/>
    <circle r="12.5" cx="12.5" cy="12.5" class="cell_$add$Verilog/programme_counter.v:28$4"/>
    <line x1="7.5" x2="17.5" y1="12.5" y2="12.5" class="cell_$add$Verilog/programme_counter.v:28$4"/>
    <line x1="12.5" x2="12.5" y1="7.5" y2="17.5" class="cell_$add$Verilog/programme_counter.v:28$4"/>
    <g s:x="3" s:y="5" s:pid="A"/>
    <g s:x="3" s:y="20" s:pid="B"/>
    <g s:x="25" s:y="12.5" s:pid="Y"/>
  </g>
  <g s:type="dff" transform="translate(314,44.5)" s:width="30" s:height="40" id="cell_$procdff$11">
    <s:alias val="$dff"/>
    <s:alias val="$_DFF_"/>
    <s:alias val="$_DFF_P_"/>
    <rect width="30" height="40" x="0" y="0" class="cell_$procdff$11"/>
    <path d="M0,35 L5,30 L0,25" class="cell_$procdff$11"/>
    <g s:x="30" s:y="10" s:pid="Q"/>
    <g s:x="0" s:y="30" s:pid="CLK"/>
    <g s:x="0" s:y="30" s:pid="C"/>
    <g s:x="0" s:y="10" s:pid="D"/>
  </g>
  <g s:type="mux" transform="translate(187.33333333333334,24.5)" s:width="20" s:height="40" id="cell_$ternary$Verilog/programme_counter.v:30$5">
    <s:alias val="$pmux"/>
    <s:alias val="$mux"/>
    <s:alias val="$_MUX_"/>
    <path d="M0,0 L20,10 L20,30 L0,40 Z" class="cell_$ternary$Verilog/programme_counter.v:30$5"/>
    <g s:x="0" s:y="10" s:pid="A"/>
    <g s:x="0" s:y="30" s:pid="B"/>
    <g s:x="10" s:y="35" s:pid="S"/>
    <g s:x="20" s:y="20" s:pid="Y"/>
  </g>
  <g s:type="mux" transform="translate(252.33333333333334,34.5)" s:width="20" s:height="40" id="cell_$ternary$Verilog/programme_counter.v:32$6">
    <s:alias val="$pmux"/>
    <s:alias val="$mux"/>
    <s:alias val="$_MUX_"/>
    <path d="M0,0 L20,10 L20,30 L0,40 Z" class="cell_$ternary$Verilog/programme_counter.v:32$6"/>
    <g s:x="0" s:y="10" s:pid="A"/>
    <g s:x="0" s:y="30" s:pid="B"/>
    <g s:x="10" s:y="35" s:pid="S"/>
    <g s:x="20" s:y="20" s:pid="Y"/>
  </g>
  <g s:type="inputExt" transform="translate(249,282)" s:width="30" s:height="20" id="cell_clk">
    <text x="15" y="-4" class="nodelabel cell_clk" s:attribute="ref">clk</text>
    <s:alias val="$_inputExt_"/>
    <path d="M0,0 L0,20 L15,20 L30,10 L15,0 Z" class="cell_clk"/>
    <g s:x="28" s:y="10" s:pid="Y"/>
  </g>
  <g s:type="inputExt" transform="translate(184,252)" s:width="30" s:height="20" id="cell_reset">
    <text x="15" y="-4" class="nodelabel cell_reset" s:attribute="ref">reset</text>
    <s:alias val="$_inputExt_"/>
    <path d="M0,0 L0,20 L15,20 L30,10 L15,0 Z" class="cell_reset"/>
    <g s:x="28" s:y="10" s:pid="Y"/>
  </g>
  <g s:type="inputExt" transform="translate(77,157)" s:width="30" s:height="20" id="cell_pc_sel">
    <text x="15" y="-4" class="nodelabel cell_pc_sel" s:attribute="ref">pc_sel</text>
    <s:alias val="$_inputExt_"/>
    <path d="M0,0 L0,20 L15,20 L30,10 L15,0 Z" class="cell_pc_sel"/>
    <g s:x="28" s:y="10" s:pid="Y"/>
  </g>
  <g s:type="inputExt" transform="translate(77,92)" s:width="30" s:height="20" id="cell_jump_address">
    <text x="15" y="-4" class="nodelabel cell_jump_address" s:attribute="ref">jump_address</text>
    <s:alias val="$_inputExt_"/>
    <path d="M0,0 L0,20 L15,20 L30,10 L15,0 Z" class="cell_jump_address"/>
    <g s:x="28" s:y="10" s:pid="Y"/>
  </g>
  <g s:type="outputExt" transform="translate(379,44.5)" s:width="30" s:height="20" id="cell_pc_out">
    <text x="15" y="-4" class="nodelabel cell_pc_out" s:attribute="ref">pc_out</text>
    <s:alias val="$_outputExt_"/>
    <path d="M30,0 L30,20 L15,20 L0,10 L15,0 Z" class="cell_pc_out"/>
    <g s:x="0" s:y="10" s:pid="A"/>
  </g>
  <g s:type="constant" transform="translate(12,32)" s:width="30" s:height="20" id="cell_100">
    <text x="15" y="-4" class="nodelabel cell_100" s:attribute="ref">100</text>
    <s:alias val="$_constant_"/>
    <rect width="30" height="20" class="cell_100"/>
    <g s:x="30" s:y="10" s:pid="Y"/>
  </g>
  <g s:type="constant" transform="translate(184,187)" s:width="30" s:height="20" id="cell_00000000000000000000000000000000">
    <text x="15" y="-4" class="nodelabel cell_00000000000000000000000000000000" s:attribute="ref">0x0</text>
    <s:alias val="$_constant_"/>
    <rect width="30" height="20" class="cell_00000000000000000000000000000000"/>
    <g s:x="30" s:y="10" s:pid="Y"/>
  </g>
  <line x1="344" x2="354" y1="54.5" y2="54.5" class="net_37,38,39,40,41,42,43,44,45,46,47,48,49,50,51,52,53,54,55,56,57,58,59,60,61,62,63,64,65,66,67,68"/>
  <line x1="354" x2="354" y1="54.5" y2="12" class="net_37,38,39,40,41,42,43,44,45,46,47,48,49,50,51,52,53,54,55,56,57,58,59,60,61,62,63,64,65,66,67,68"/>
  <line x1="354" x2="52" y1="12" y2="12" class="net_37,38,39,40,41,42,43,44,45,46,47,48,49,50,51,52,53,54,55,56,57,58,59,60,61,62,63,64,65,66,67,68"/>
  <line x1="52" x2="52" y1="12" y2="27" class="net_37,38,39,40,41,42,43,44,45,46,47,48,49,50,51,52,53,54,55,56,57,58,59,60,61,62,63,64,65,66,67,68"/>
  <circle cx="354" cy="54.5" r="2" style="fill:#000" class="net_37,38,39,40,41,42,43,44,45,46,47,48,49,50,51,52,53,54,55,56,57,58,59,60,61,62,63,64,65,66,67,68"/>
  <line x1="52" x2="97.33333333333334" y1="27" y2="27" class="net_37,38,39,40,41,42,43,44,45,46,47,48,49,50,51,52,53,54,55,56,57,58,59,60,61,62,63,64,65,66,67,68"/>
  <line x1="344" x2="379" y1="54.5" y2="54.5" class="net_37,38,39,40,41,42,43,44,45,46,47,48,49,50,51,52,53,54,55,56,57,58,59,60,61,62,63,64,65,66,67,68"/>
  <line x1="42" x2="97.33333333333334" y1="42" y2="42" class="net_165,166,167"/>
  <line x1="277" x2="289" y1="292" y2="292" class="net_2"/>
  <line x1="289" x2="289" y1="292" y2="74.5" class="net_2"/>
  <line x1="289" x2="314" y1="74.5" y2="74.5" class="net_2"/>
  <line x1="272.33333333333337" x2="314" y1="54.5" y2="54.5" class="net_101,102,103,104,105,106,107,108,109,110,111,112,113,114,115,116,117,118,119,120,121,122,123,124,125,126,127,128,129,130,131,132"/>
  <line x1="119.33333333333334" x2="187.33333333333334" y1="34.5" y2="34.5" class="net_69,70,71,72,73,74,75,76,77,78,79,80,81,82,83,84,85,86,87,88,89,90,91,92,93,94,95,96,97,98,99,100"/>
  <line x1="105" x2="159" y1="102" y2="102" class="net_5,6,7,8,9,10,11,12,13,14,15,16,17,18,19,20,21,22,23,24,25,26,27,28,29,30,31,32,33,34,35,36"/>
  <line x1="159" x2="159" y1="102" y2="54.5" class="net_5,6,7,8,9,10,11,12,13,14,15,16,17,18,19,20,21,22,23,24,25,26,27,28,29,30,31,32,33,34,35,36"/>
  <line x1="159" x2="187.33333333333334" y1="54.5" y2="54.5" class="net_5,6,7,8,9,10,11,12,13,14,15,16,17,18,19,20,21,22,23,24,25,26,27,28,29,30,31,32,33,34,35,36"/>
  <line x1="105" x2="197.33333333333334" y1="167" y2="167" class="net_4"/>
  <line x1="197.33333333333334" x2="197.33333333333334" y1="167" y2="59.5" class="net_4"/>
  <line x1="207.33333333333334" x2="252.33333333333334" y1="44.5" y2="44.5" class="net_133,134,135,136,137,138,139,140,141,142,143,144,145,146,147,148,149,150,151,152,153,154,155,156,157,158,159,160,161,162,163,164"/>
  <line x1="214" x2="224" y1="197" y2="197" class="net_168,169,170,171,172,173,174,175,176,177,178,179,180,181,182,183,184,185,186,187,188,189,190,191,192,193,194,195,196,197,198,199"/>
  <line x1="224" x2="224" y1="197" y2="64.5" class="net_168,169,170,171,172,173,174,175,176,177,178,179,180,181,182,183,184,185,186,187,188,189,190,191,192,193,194,195,196,197,198,199"/>
  <line x1="224" x2="252.33333333333334" y1="64.5" y2="64.5" class="net_168,169,170,171,172,173,174,175,176,177,178,179,180,181,182,183,184,185,186,187,188,189,190,191,192,193,194,195,196,197,198,199"/>
  <line x1="212" x2="262.33333333333337" y1="262" y2="262" class="net_3"/>
  <line x1="262.33333333333337" x2="262.33333333333337" y1="262" y2="69.5" class="net_3"/>
</svg>
